<svg width="14" height="14" viewBox="0 0 14 14" fill="none" xmlns="http://www.w3.org/2000/svg">
<path d="M5.83335 4.66666V7.72916C5.83335 9.10623 5.185 10.4029 4.08335 11.2292V11.2292L3.50002 11.6667M12.8334 4.66666V7.72916C12.8334 9.10623 12.185 10.4029 11.0834 11.2292V11.2292L10.5 11.6667M10.5 7V7C10.8096 7 10.9644 7 11.0944 6.98288C11.9919 6.86473 12.6981 6.15851 12.8162 5.26105C12.8334 5.13108 12.8334 4.97628 12.8334 4.66666V4.66666C12.8334 4.35705 12.8334 4.20224 12.8162 4.07228C12.6981 3.17481 11.9919 2.46859 11.0944 2.35044C10.9644 2.33333 10.8096 2.33333 10.5 2.33333V2.33333C10.1904 2.33333 10.0356 2.33333 9.90563 2.35044C9.00817 2.46859 8.30195 3.17481 8.1838 4.07228C8.16669 4.20224 8.16669 4.35705 8.16669 4.66666V4.66666C8.16669 4.97628 8.16669 5.13108 8.1838 5.26105C8.30195 6.15851 9.00817 6.86473 9.90563 6.98288C10.0356 7 10.1904 7 10.5 7ZM3.50002 7V7C3.80963 7 3.96444 7 4.09441 6.98288C4.99187 6.86473 5.69809 6.15851 5.81624 5.26105C5.83335 5.13108 5.83335 4.97628 5.83335 4.66666V4.66666C5.83335 4.35705 5.83335 4.20224 5.81624 4.07228C5.69809 3.17481 4.99187 2.46859 4.09441 2.35044C3.96444 2.33333 3.80963 2.33333 3.50002 2.33333V2.33333C3.19041 2.33333 3.0356 2.33333 2.90563 2.35044C2.00817 2.46859 1.30195 3.17481 1.1838 4.07228C1.16669 4.20224 1.16669 4.35705 1.16669 4.66666V4.66666C1.16669 4.97628 1.16669 5.13108 1.1838 5.26105C1.30195 6.15851 2.00817 6.86473 2.90563 6.98288C3.0356 7 3.19041 7 3.50002 7Z" stroke="black" stroke-opacity="0.54" stroke-width="1.5" stroke-linecap="round" stroke-linejoin="round"/>
</svg>
