<svg width="14" height="14" viewBox="0 0 14 14" fill="none" xmlns="http://www.w3.org/2000/svg">
<path d="M5.2501 11.6668L12.8334 11.6668M5.2501 7.00011L12.8334 7.00011M5.2501 2.33344L12.8334 2.33344M2.04177 2.33345C2.04177 2.49453 1.91118 2.62511 1.7501 2.62511C1.58902 2.62511 1.45844 2.49453 1.45844 2.33345M2.04177 2.33345C2.04177 2.17236 1.91118 2.04178 1.7501 2.04178C1.58902 2.04178 1.45844 2.17236 1.45844 2.33345M2.04177 2.33345L1.45844 2.33345M2.04177 7.00011C2.04177 7.16119 1.91118 7.29178 1.7501 7.29178C1.58902 7.29178 1.45844 7.16119 1.45844 7.00011M2.04177 7.00011C2.04177 6.83903 1.91118 6.70844 1.7501 6.70844C1.58902 6.70844 1.45844 6.83903 1.45844 7.00011M2.04177 7.00011L1.45844 7.00011M2.04177 11.6668C2.04177 11.8279 1.91118 11.9584 1.7501 11.9584C1.58902 11.9584 1.45844 11.8279 1.45844 11.6668M2.04177 11.6668C2.04177 11.5057 1.91118 11.3751 1.7501 11.3751C1.58902 11.3751 1.45844 11.5057 1.45844 11.6668M2.04177 11.6668L1.45844 11.6668" stroke="black" stroke-opacity="0.54" stroke-width="1.5" stroke-linecap="round" stroke-linejoin="round"/>
</svg>
